<?xml version="1.0" encoding="UTF-8" standalone="no"?>
<svg
   xmlns:dc="http://purl.org/dc/elements/1.1/"
   xmlns:cc="http://creativecommons.org/ns#"
   xmlns:rdf="http://www.w3.org/1999/02/22-rdf-syntax-ns#"
   xmlns:svg="http://www.w3.org/2000/svg"
   xmlns="http://www.w3.org/2000/svg"
   xmlns:sodipodi="http://sodipodi.sourceforge.net/DTD/sodipodi-0.dtd"
   xmlns:inkscape="http://www.inkscape.org/namespaces/inkscape"
   version="1.1"
   id="svg2"
   width="333"
   height="151"
   viewBox="0 0 333 151"
   sodipodi:docname="uv_bead_dye_structure.svg"
   inkscape:export-filename="C:\Users\saman\Desktop\Outreach\UV Beads lesson\UV-Beads\Figures\uv_bead_dye_structure.png"
   inkscape:export-xdpi="400"
   inkscape:export-ydpi="400"
   inkscape:version="1.0.1 (3bc2e813f5, 2020-09-07)">
  <metadata
     id="metadata8">
    <rdf:RDF>
      <cc:Work
         rdf:about="">
        <dc:format>image/svg+xml</dc:format>
        <dc:type
           rdf:resource="http://purl.org/dc/dcmitype/StillImage" />
        <dc:title></dc:title>
      </cc:Work>
    </rdf:RDF>
  </metadata>
  <defs
     id="defs6" />
  <sodipodi:namedview
     pagecolor="#ffffff"
     bordercolor="#666666"
     borderopacity="1"
     objecttolerance="10"
     gridtolerance="10"
     guidetolerance="10"
     inkscape:pageopacity="0"
     inkscape:pageshadow="2"
     inkscape:window-width="1920"
     inkscape:window-height="986"
     id="namedview4"
     showgrid="false"
     inkscape:zoom="2.8284271"
     inkscape:cx="162.51277"
     inkscape:cy="47.464222"
     inkscape:window-x="-11"
     inkscape:window-y="-11"
     inkscape:window-maximized="1"
     inkscape:current-layer="g10" />
  <g
     inkscape:groupmode="layer"
     inkscape:label="Image"
     id="g10">
    <path
       style="fill:#000000"
       d="M 8.75,145.17313 C 1,140.53866 1,140.53866 1,130.35685 c 0,-10.18181 0,-10.18181 8,-14.7962 8,-4.6144 8,-4.6144 8,-13.98089 0,-9.366498 0,-9.366498 8.130835,-13.973129 4.471959,-2.533647 8.634459,-4.599091 9.25,-4.589876 0.615541,0.0092 4.494165,1.994944 8.619165,4.41273 7.5,4.395974 7.5,4.395974 13,1.280026 3.025,-1.713771 6.72922,-3.812 8.2316,-4.66273 2.556643,-1.447711 3.030143,-1.388919 7.392754,0.917912 2.563635,1.35558 6.657035,3.730442 9.096444,5.277469 4.435289,2.812777 4.435289,2.812777 4.107245,10.287638 -0.180423,4.11117 -0.03507,7.47381 0.323013,7.47253 0.35808,-0.001 2.883397,-2.58983 5.611814,-5.75233 4.960759,-5.75 4.960759,-5.75 2.523692,-14.666126 -2.437068,-8.916127 -2.437068,-8.916127 4.639135,-15.992329 7.076203,-7.076203 7.076203,-7.076203 16.825253,-4.565682 9.74905,2.51052 9.74905,2.51052 12.22778,12.254978 2.47873,9.744458 2.47873,9.744458 -4.54435,16.767533 -7.02307,7.023076 -7.02307,7.023076 -16.21153,4.564086 -9.188459,-2.458997 -9.188459,-2.458997 -14.848601,3.98799 -3.113078,3.54585 -5.381169,6.72596 -5.040202,7.06693 0.340966,0.34097 3.427764,2.30873 6.85955,4.3728 6.23961,3.75286 6.23961,3.75286 11.273003,0.79652 2.76837,-1.62599 6.45558,-3.66854 8.19379,-4.53901 3.11854,-1.56169 3.27416,-1.5188 11.75,3.23875 8.58961,4.82141 8.58961,4.82141 8.58635,14.89248 -0.003,10.07108 -0.003,10.07108 -8.62259,15.00512 -8.61933,4.93404 -8.61933,4.93404 -13.74674,2.07745 -2.82007,-1.57112 -6.81491,-3.90959 -8.87741,-5.19658 -3.75,-2.34 -3.75,-2.34 -3.75,-11.69813 0,-9.35813 0,-9.35813 -7.141296,-13.49263 -4.300261,-2.48967 -7.582374,-3.80312 -8.25,-3.30152 -0.609787,0.45814 -3.200956,2.02792 -5.758152,3.4884 -3.75801,2.1463 -4.75523,2.37976 -5.201173,1.21765 -0.37175,-0.96876 1.226468,-2.45515 4.899448,-4.55662 C 82,110.85322 82,110.85322 82,101.99666 82,93.140091 82,93.140091 74.501631,89.000901 67.003263,84.86171 67.003263,84.86171 59.466999,89.149522 51.930736,93.437335 51.930736,93.437335 52.215368,102.42835 52.5,111.41936 52.5,111.41936 57.732487,114.45968 62.66484,117.32561 64.244165,119 62.015023,119 c -0.541738,0 -3.24737,-1.39206 -6.012516,-3.09348 -5.027539,-3.09347 -5.027539,-3.09347 -12.765023,1.26965 C 35.5,121.53928 35.5,121.53928 35.216404,131.0528 c -0.283597,9.51351 -0.283597,9.51351 -8.366664,14.23036 -4.445687,2.59426 -8.593069,4.67355 -9.216404,4.62064 C 17.010001,149.85089 13.0125,147.72209 8.75,145.17313 Z M 25.882464,143.5 c 7.071245,-4 7.071245,-4 7.083771,-13 0.01253,-9 0.01253,-9 -7.520385,-13.29345 -7.532911,-4.29345 -7.532911,-4.29345 -14.98938,-0.051 C 3,121.39793 3,121.39793 3.0325516,130.44896 3.0651032,139.5 3.0651032,139.5 10.282552,143.6912 c 3.969596,2.30516 7.512472,4.10516 7.873057,4 0.360585,-0.10516 3.83767,-1.9912 7.726855,-4.1912 z M 17,144.23082 c 0,-0.42304 2.804291,-2.33554 6.231758,-4.25 C 31.080679,135.59671 31,135.62904 31,136.86876 31,137.93029 19.650556,145 17.946424,145 17.425891,145 17,144.65387 17,144.23082 Z M 5,130.5 c 0,-4.33333 0.4222222,-7.5 1,-7.5 0.5777778,0 1,3.16667 1,7.5 0,4.33333 -0.4222222,7.5 -1,7.5 -0.5777778,0 -1,-3.16667 -1,-7.5 z m 118.5,13.13631 c 7,-4.21692 7,-4.21692 7.25598,-13.17662 0.25598,-8.95969 0.25598,-8.95969 -7.40866,-13.2207 -7.66465,-4.26102 -7.66465,-4.26102 -15.25598,0.0192 -7.59134,4.28023 -7.59134,4.28023 -7.87945,12.95487 -0.288118,8.67464 -0.288118,8.67464 7.5,13.21272 4.28346,2.49594 8.01311,4.51318 8.28811,4.48275 0.275,-0.0304 3.65,-1.95293 7.5,-4.27224 z m -8.5,0.5793 c 0,-0.43142 1.4625,-1.61914 3.25,-2.63938 1.7875,-1.02024 4.67687,-2.70694 6.42082,-3.74823 1.87598,-1.12012 3.41607,-1.49643 3.77138,-0.92152 0.33031,0.53445 -2.26481,2.57413 -5.76692,4.53262 -6.6284,3.70682 -7.67528,4.08552 -7.67528,2.77651 z m -12,-14.27463 c 0,-5.11803 0.36493,-7.83347 1,-7.44098 0.55,0.33992 1,3.96648 1,8.05902 0,4.29399 -0.42293,7.44098 -1,7.44098 -0.58394,0 -1,-3.35301 -1,-8.05902 z m 18.25698,-8.78356 C 115.46509,117.76429 113.64841,116 115.94642,116 c 1.95451,0 13.07261,7.16019 12.51615,8.06056 -0.31933,0.51669 -0.66655,0.89778 -0.77159,0.84686 -0.10504,-0.0509 -3.00034,-1.73842 -6.434,-3.75 z m -75.969751,-7.64264 c 4.787229,-2.74846 4.787229,-2.74846 4.5,-11.30253 C 49.5,93.658186 49.5,93.658186 42.164898,89.329093 38.130591,86.948092 34.628571,85 34.382629,85 34.136688,85 30.579763,86.9125 26.478351,89.25 19.02124,93.5 19.02124,93.5 19.01062,102.21595 19,110.9319 19,110.9319 26.72432,115.40887 c 7.72432,4.47697 7.72432,4.47697 10.75,2.66568 1.664124,-0.99622 5.179933,-3.04811 7.812909,-4.55977 z m -11.251515,2.0896 c 0.805357,-0.7676 4.115612,-2.87158 7.356121,-4.67551 7.465187,-4.15574 7.055326,-1.73344 -0.46621,2.75532 -5.801109,3.46203 -9.626049,4.52802 -6.889911,1.92019 z M 21,102.55902 c 0,-4.092544 0.45,-7.719101 1,-8.05902 0.635069,-0.392494 1,2.322949 1,7.44098 C 23,106.64699 22.583944,110 22,110 c -0.577073,0 -1,-3.14699 -1,-7.44098 z M 38.726851,92.363105 c -3.175232,-1.913547 -5.530447,-3.871877 -5.233811,-4.351844 0.578404,-0.935876 13.482221,5.984365 13.497703,7.238739 0.01794,1.453329 -2.551263,0.555809 -8.263892,-2.886895 z M 124.95736,79.783377 c -2.15369,-8.587046 -2.15369,-8.587046 -10.72626,-10.737109 -8.57256,-2.150062 -8.57256,-2.150062 -14.792789,4.014873 -6.220225,6.164935 -6.220225,6.164935 -4.294643,13.301897 1.059071,3.925329 2.275005,7.777814 2.702077,8.561078 0.427072,0.783263 4.348995,2.414276 8.715375,3.624473 7.93888,2.200361 7.93888,2.200361 14.24441,-3.988904 6.30553,-6.189261 6.30553,-6.189261 4.15183,-14.776308 z M 105.6887,96.139913 c -3.19622,-0.933506 -5.67122,-2.134375 -5.5,-2.668598 0.17121,-0.534223 0.5363,-0.918149 0.8113,-0.853167 7.56091,1.786605 14,3.870236 14,4.530273 0,1.220601 -2.66879,0.931545 -9.3113,-1.008508 z M 122.51496,86.75 c -1.87439,-5.548602 -3.59216,-13.006134 -3.10747,-13.490818 0.96509,-0.965093 1.64481,0.253893 3.00407,5.387376 0.70681,2.669393 1.60868,5.865942 2.00416,7.103442 0.44883,1.404452 0.30614,2.25 -0.37972,2.25 -0.60432,0 -1.28879,-0.5625 -1.52104,-1.25 z M 96,80.21584 c 0,-1.418896 10.59846,-11.284044 11.33333,-10.549173 0.39503,0.395026 -1.6405,3.106628 -4.52339,6.025782 C 97.81786,80.747322 96,81.954805 96,80.21584 Z m 105.75,65.09259 c -7.75,-4.5806 -7.75,-4.5806 -7.75,-14.84398 0,-10.26337 0,-10.26337 7.75,-14.63355 7.75,-4.37018 7.75,-4.37018 8.03392,-13.91078 0.28393,-9.540589 0.28393,-9.540589 8.30847,-14.230355 4.41349,-2.579371 8.56073,-4.686418 9.21607,-4.682328 0.65535,0.0041 4.6397,1.977159 8.85413,4.384598 7.66258,4.377161 7.66258,4.377161 15,0.215978 C 258.5,83.44683 258.5,83.44683 259,74.083477 c 0.5,-9.363354 0.5,-9.363354 8.2307,-13.473415 C 274.96139,56.5 274.96139,56.5 274.9807,48.30398 275,40.107961 275,40.107961 266.75,35.267436 c -8.25,-4.840524 -8.25,-4.840524 -8.53509,-14.4609 -0.28254,-9.534486 -0.26022,-9.637479 2.5,-11.535996 C 264.75335,6.4928474 274.81734,1 275.86819,1 c 0.49416,0 4.55098,2.1314022 9.01515,4.7364494 C 293,10.472899 293,10.472899 293,20.564459 293,30.65602 293,30.65602 285.01605,35.07801 277.03211,39.5 277.03211,39.5 277.01605,47.75 277,56 277,56 284.88103,56 c 7.88102,0 7.88102,0 12.75,-8.25 C 302.5,39.5 302.5,39.5 312.21486,39.214212 c 9.71487,-0.285788 9.71487,-0.285788 12.15652,3.582037 1.34291,2.127304 3.69526,6.113142 5.22744,8.857418 2.78579,4.989593 2.78579,4.989593 -2.08544,13.667963 C 322.64215,74 322.64215,74 312.55174,74 c -10.0904,0 -10.0904,0 -14.59301,-7.75 -4.5026,-7.75 -4.5026,-7.75 -12.99835,-8.035545 -8.31783,-0.279564 -8.65766,-0.197548 -16.22806,3.916533 C 261,66.333065 261,66.333065 260.9976,75.416533 260.9952,84.5 260.9952,84.5 252.97068,89 c -8.02452,4.5 -8.02452,4.5 -7.7476,12.43807 0.27692,7.93807 0.27692,7.93807 6.05007,11.30804 3.17523,1.85348 5.52356,3.77381 5.2185,4.2674 -0.30506,0.4936 -2.845,-0.45299 -5.64432,-2.10353 -2.79932,-1.65053 -5.28414,-2.8065 -5.52183,-2.56881 -0.23769,0.23769 2.08957,1.58273 4.85782,3.48631 4.62644,3.18135 4.70242,3.35134 4.37002,3.58665 -0.92455,0.65448 -2.01495,-0.27077 -5.10476,-1.72913 -3.11789,-1.47162 -5.92857,-3.685 -7.07768,-3.685 -0.28708,0 -3.63797,1.81985 -7.44643,4.04411 C 228,122.08822 228,122.08822 228,131.43748 c 0,9.34926 0,9.34926 -8.13084,13.95589 -4.47195,2.53365 -8.63445,4.58166 -9.25,4.55114 -0.61554,-0.0305 -4.60666,-2.11675 -8.86916,-4.63608 z M 218.52165,143.75 c 7.45711,-4.25 7.45711,-4.25 7.45711,-13.25 0,-9 0,-9 -7.48938,-13.2685 -7.48938,-4.26849 -7.48938,-4.26849 -14.97876,0 -7.48938,4.2685 -7.48938,4.2685 -7.48482,13.2685 0.005,9 0.005,9 7.23938,13.23186 3.97915,2.32753 7.36184,4.24003 7.51709,4.25 0.15525,0.01 3.63797,-1.89436 7.73938,-4.23186 z m -8.50978,0.5 c 0.0143,-0.90371 11.37318,-7.25 12.97638,-7.25 2.05689,0 0.0829,1.76893 -5.47313,4.90456 -5.50709,3.10801 -7.5253,3.73888 -7.50325,2.34544 z M 198,130.5 c 0,-4.33333 0.42222,-7.5 1,-7.5 0.57778,0 1,3.16667 1,7.5 0,4.33333 -0.42222,7.5 -1,7.5 -0.57778,0 -1,-3.16667 -1,-7.5 z m 18.27672,-9.352 C 210.34423,117.67046 208.67068,116 211.11919,116 212.81347,116 224,123.0106 224,124.0724 c 0,1.40381 -0.95917,1.04062 -7.72328,-2.9244 z M 235.75,115.03089 c 7.25,-4.25882 7.25,-4.25882 7.25,-12.63231 0,-8.373491 0,-8.373491 -3.75,-10.710251 -2.0625,-1.285218 -5.59684,-3.361824 -7.85409,-4.61468 -4.10409,-2.277921 -4.10409,-2.277921 -11.76681,2.074215 C 211.96638,93.5 211.96638,93.5 212.23319,102.47196 c 0.26681,8.97196 0.26681,8.97196 7.70576,13.19224 4.09142,2.32115 7.69142,4.08646 8,3.92289 0.30858,-0.16356 3.82355,-2.21385 7.81105,-4.5562 z M 215.74866,94.227764 c 1.23676,-0.95027 4.49926,-2.991223 7.25,-4.53545 C 226.41022,87.777109 228,87.306399 228,88.21149 c 0,0.729774 -2.64459,2.780732 -5.87687,4.557686 -6.33288,3.481522 -10.14151,4.353 -6.37447,1.458588 z M 325.75463,64.331076 c 4.25462,-7.625775 4.25462,-7.625775 0,-14.991133 -2.34005,-4.050947 -4.59213,-7.359639 -5.00463,-7.35265 -0.4125,0.007 -4.54348,0.01271 -9.17995,0.01271 -8.42996,0 -8.42996,0 -12.54237,7.449854 -4.11241,7.449853 -4.11241,7.449853 0.17996,14.967896 4.29236,7.518042 4.29236,7.518042 13.29236,7.528571 9,0.01053 9,0.01053 13.25463,-7.615245 z M 301.56056,63.968014 C 299.60225,60.626672 298,57.466957 298,56.946424 c 0,-1.749701 1.66912,-0.96658 2.7784,1.303576 0.60469,1.2375 2.25899,4.131576 3.67622,6.43128 1.44423,2.343518 2.15697,4.440734 1.62164,4.77159 -0.52533,0.324671 -2.5574,-2.143514 -4.5157,-5.484856 z m 17.20494,5.464149 c -0.68303,-0.68303 6.41325,-13.409684 7.4845,-13.422906 0.4125,-0.0051 0.75,0.416634 0.75,0.937167 C 327,57.895175 320.15524,70 319.61876,70 c -0.15698,0 -0.54095,-0.255527 -0.85326,-0.567837 z M 304.5,45 c -0.39249,-0.635069 2.32295,-1 7.44098,-1 4.70601,0 8.05902,0.416056 8.05902,1 0,0.577073 -3.14699,1 -7.44098,1 -4.09254,0 -7.7191,-0.45 -8.05902,-1 z M 283.74932,33.5 c 7.2373,-4 7.2373,-4 7.21189,-13 -0.0254,-9 -0.0254,-9 -7.50448,-13.2697248 C 275.97767,2.9605505 275.97767,2.9605505 268.48884,7.0706621 261,11.180774 261,11.180774 261,15.450816 c 0,2.348523 -0.27972,6.310811 -0.6216,8.805085 -0.62159,4.535044 -0.62159,4.535044 7.25,9.120413 4.32938,2.521953 8.09931,4.48149 8.37761,4.354527 C 276.28432,37.603879 279.76881,35.7 283.74932,33.5 Z M 275,34.186049 c 0,-1.23732 12.90658,-8.146226 13.48118,-7.216494 0.56066,0.907159 -1.92876,2.695941 -8.19134,5.885913 C 275.64525,35.221284 275,35.383587 275,34.186049 Z M 263,19.940983 c 0,-5.118034 0.36493,-7.833477 1,-7.440983 0.55,0.339919 1,3.966476 1,8.059017 C 265,24.853006 264.57707,28 264,28 c -0.58394,0 -1,-3.353006 -1,-8.059017 z m 18.27072,-8.733436 C 275.47299,7.7568541 273.67675,6 275.94642,6 c 1.95451,0 13.07261,7.160194 12.51615,8.060558 -0.31933,0.516693 -0.66655,0.920338 -0.77159,0.896989 -0.10504,-0.02335 -2.99416,-1.710849 -6.42026,-3.75 z M 176.48333,113.02698 c 1.65757,-2.71324 -4.92621,-1.07653 -14.19098,-1.25 C 149.93336,111.54556 147.5,111.25325 147.5,110 c 0,-1.25325 2.43336,-1.54556 14.79235,-1.77698 9.26477,-0.17347 15.24976,1.17341 14.19098,-1.25 -1.11837,-2.5598 1.76382,-0.46636 4.01667,1.02698 4.23827,2.80941 4.20895,1.60098 0,4 -2.3482,1.33843 -5.19383,2.95386 -4.01667,1.02698 z M 147.5,99 c -4.44123,-2.427473 -4.52414,-1.655438 0,-4 2.83166,-1.467464 4.70937,-2.795648 4.13837,-0.5 -0.66167,2.660191 1.49842,1.5 14.39301,1.5 C 178.67015,96 181,96.233473 181,97.5 c 0,1.264368 -2.27778,1.5 -14.5,1.5 -9,0 -15.53768,-2.257094 -14.58291,0.792723 C 152.42105,101.40252 149.99886,100.36582 147.5,99 Z M 71.743234,92.388681 c -3.166221,-1.956773 -5.525038,-3.932712 -5.241816,-4.390976 0.558841,-0.904223 13.420018,6.020873 13.468844,7.252295 0.0608,1.533452 -2.630464,0.597443 -8.227028,-2.861319 z M 243,89.155737 C 243,88.034525 254.11002,81 255.88081,81 c 2.49964,0 0.76768,1.683906 -5.14268,5 C 242.86729,90.416059 243,90.361936 243,89.155737 Z m 20.03571,-21.551362 c 0.80536,-0.767593 4.11562,-2.87157 7.35613,-4.675505 7.46518,-4.155738 7.05532,-1.733436 -0.46621,2.755323 -5.80111,3.462031 -9.62605,4.528021 -6.88992,1.920182 z"
       id="path837"
       sodipodi:nodetypes="sssssssssssscsssssssssssssccssssssssssssssssssssssscsssssssssssssssssssssssssssssssssssssssssssssssssssssssssssssssssssssssssssssssssssssssssssssssssssssssssssssssssssssssssssssssssssssccsssssssssssssssssssssssssssssssssssssssssssssssssssssssssssssssssssssssssssssssssssssssssssssssssssssssss" />
    <text
       xml:space="preserve"
       style="font-size:13.3333px;line-height:1.25;font-family:'Berlin Sans FB';-inkscape-font-specification:'Berlin Sans FB'"
       x="62.514713"
       y="125.6927"
       id="text841"><tspan
         sodipodi:role="line"
         id="tspan839"
         x="62.514713"
         y="125.6927"
         style="font-size:13.3333px">O</tspan></text>
    <text
       xml:space="preserve"
       style="font-size:13.3333px;line-height:1.25;font-family:'Berlin Sans FB';-inkscape-font-specification:'Berlin Sans FB'"
       x="254.72757"
       y="125.81584"
       id="text845"><tspan
         sodipodi:role="line"
         id="tspan843"
         x="254.72757"
         y="125.81584"
         style="font-size:13.3333px">O</tspan></text>
    <text
       xml:space="preserve"
       style="font-size:13.3333px;line-height:1.25;font-family:'Berlin Sans FB';-inkscape-font-specification:'Berlin Sans FB'"
       x="11.08164"
       y="57.96809"
       id="text841-1"><tspan
         sodipodi:role="line"
         id="tspan839-5"
         x="11.08164"
         y="57.96809"
         style="font-size:13.3333px">Planar ground state</tspan></text>
    <text
       xml:space="preserve"
       style="font-size:13.3333px;line-height:1.25;font-family:'Berlin Sans FB';-inkscape-font-specification:'Berlin Sans FB'"
       x="256.16583"
       y="105.39305"
       id="text867"><tspan
         sodipodi:role="line"
         id="tspan865"
         x="256.16583"
         y="105.39305"
         style="font-size:13.3333px">Excited state</tspan></text>
    <path
       style="fill:#ff5b2c;fill-opacity:1"
       d="m 80.184943,111.61495 c 0.35808,-10e-4 2.316807,1.33874 2.479208,1.79277 0.106591,0.298 0.05566,0.32165 -0.05728,0.42091 -0.572899,0.50351 -3.200956,2.02792 -5.758152,3.4884 -3.75801,2.1463 -4.819925,2.40256 -5.201173,1.21765 -0.382799,-1.18973 1.601196,-2.65887 4.899448,-4.55662 3.617695,-2.08156 3.365802,-2.18214 3.637948,-2.36311 z"
       id="path869"
       sodipodi:nodetypes="csssssc" />
  </g>
</svg>
